<svg xmlns="http://www.w3.org/2000/svg" xmlns:xlink="http://www.w3.org/1999/xlink" width="500" zoomAndPan="magnify" viewBox="0 0 375 374.999991" height="500" preserveAspectRatio="xMidYMid meet" version="1.0"><defs><g/></defs><rect x="-37.5" width="450" fill="#ffffff" y="-37.499999" height="449.999989" fill-opacity="1"/><rect x="-37.5" width="450" fill="#ffffff" y="-37.499999" height="449.999989" fill-opacity="1"/><rect x="-37.5" width="450" fill="#ffffff" y="-37.499999" height="449.999989" fill-opacity="1"/><g fill="#ff3131" fill-opacity="1"><g transform="translate(86.367033, 220.280158)"><g><path d="M 89.199219 -1.703125 L 46.019531 -112.777344 C 45.59375 -113.910156 43.605469 -113.910156 43.179688 -112.777344 L 0.140625 -1.703125 C -0.285156 -0.851562 0.285156 0 1.5625 0 L 21.019531 0 C 21.589844 0 22.300781 -0.285156 22.441406 -0.851562 L 44.597656 -64.199219 L 67.039062 -0.851562 C 67.183594 -0.285156 67.894531 0 68.320312 0 L 87.917969 0 C 88.914062 0 89.625 -0.851562 89.199219 -1.703125 Z M 89.199219 -1.703125 "/></g></g></g><g fill="#000000" fill-opacity="1"><g transform="translate(178.555027, 270.867155)"><g><path d="M 101.695312 -27.414062 L 123.285156 -27.414062 L 123.285156 -112.351562 C 123.285156 -112.917969 122.71875 -113.628906 121.722656 -113.628906 L 102.976562 -113.628906 C 102.40625 -113.628906 101.695312 -113.203125 101.414062 -112.777344 L 62.636719 -29.542969 L 21.875 -112.777344 C 21.730469 -113.203125 20.878906 -113.628906 20.453125 -113.628906 L 1.421875 -113.628906 C 0.425781 -113.628906 0 -112.917969 0 -112.351562 L 0 -1.277344 C 0 -0.710938 0.425781 0 1.421875 0 L 20.167969 0 C 21.019531 0 21.730469 -0.710938 21.730469 -1.277344 L 21.730469 -65.050781 L 52.554688 -5.398438 C 52.695312 -4.972656 53.546875 -4.546875 53.972656 -4.546875 L 71.445312 -4.546875 C 71.871094 -4.546875 72.578125 -4.972656 72.722656 -5.398438 L 101.695312 -63.488281 Z M 101.695312 -27.414062 "/></g></g></g><g fill="#000000" fill-opacity="1"><g transform="translate(90.328116, 250.892108)"><g><path d="M 2.5625 0 L -0.046875 0 L 3.65625 -10.03125 L 6.234375 -10.03125 L 9.859375 0 L 7.265625 0 L 6.734375 -1.6875 L 3.09375 -1.6875 Z M 4.890625 -7.5625 C 4.804688 -7.269531 4.710938 -6.953125 4.609375 -6.609375 C 4.515625 -6.273438 4.347656 -5.726562 4.109375 -4.96875 L 3.703125 -3.640625 L 6.109375 -3.640625 L 5.703125 -4.96875 C 5.554688 -5.375 5.414062 -5.800781 5.28125 -6.25 C 5.144531 -6.707031 5.015625 -7.144531 4.890625 -7.5625 Z M 4.890625 -7.5625 "/></g></g></g><g fill="#000000" fill-opacity="1"><g transform="translate(108.88574, 250.892108)"><g><path d="M 10.8125 -10.03125 L 10.8125 0 L 8.5 0 L 8.5 -6.015625 L 6.78125 -1.921875 L 4.765625 -1.921875 L 3.09375 -6.015625 L 3.09375 0 L 0.765625 0 L 0.765625 -10.03125 L 3.796875 -10.03125 L 5.828125 -4.96875 L 7.90625 -10.03125 Z M 10.8125 -10.03125 "/></g></g></g><g fill="#000000" fill-opacity="1"><g transform="translate(129.18694, 250.892108)"><g><path d="M 3.25 -10.03125 L 3.25 0 L 0.765625 0 L 0.765625 -10.03125 Z M 3.25 -10.03125 "/></g></g></g><g fill="#000000" fill-opacity="1"><g transform="translate(141.921958, 250.892108)"><g><path d="M 9.421875 -10.03125 L 9.421875 0 L 7.0625 0 L 3.09375 -5.796875 L 3.09375 0 L 0.765625 0 L 0.765625 -10.03125 L 3.125 -10.03125 L 7.109375 -4.015625 L 7.109375 -10.03125 Z M 9.421875 -10.03125 "/></g></g></g><g fill="#000000" fill-opacity="1"><g transform="translate(160.831499, 250.892108)"><g><path d="M 7.6875 -2.3125 L 7.6875 0 L 0.765625 0 L 0.765625 -10.03125 L 7.53125 -10.03125 L 7.53125 -7.796875 L 3.25 -7.796875 L 3.25 -6.125 L 6.9375 -6.125 L 6.9375 -4.046875 L 3.25 -4.046875 L 3.25 -2.3125 Z M 7.6875 -2.3125 "/></g></g></g></svg>