<svg xmlns="http://www.w3.org/2000/svg" xmlns:xlink="http://www.w3.org/1999/xlink" width="500" zoomAndPan="magnify" viewBox="0 0 375 374.999991" height="500" preserveAspectRatio="xMidYMid meet" version="1.0"><defs><clipPath id="1179d2b160"><path d="M 190 190 L 262.5 190 L 262.5 262.5 L 190 262.5 Z M 190 190 " clip-rule="nonzero"/></clipPath><clipPath id="7ce53cbd89"><path d="M 190 112.5 L 262.5 112.5 L 262.5 185 L 190 185 Z M 190 112.5 " clip-rule="nonzero"/></clipPath><clipPath id="383faa5d0b"><path d="M 112.5 190 L 185 190 L 185 262.5 L 112.5 262.5 Z M 112.5 190 " clip-rule="nonzero"/></clipPath><clipPath id="d6f4c46c1a"><path d="M 112.5 112.5 L 185 112.5 L 185 185 L 112.5 185 Z M 112.5 112.5 " clip-rule="nonzero"/></clipPath></defs><rect x="-37.5" width="450" fill="#ffffff" y="-37.499999" height="449.999989" fill-opacity="1"/><rect x="-37.5" width="450" fill="#ffffff" y="-37.499999" height="449.999989" fill-opacity="1"/><rect x="-37.5" width="450" fill="#ffffff" y="-37.499999" height="449.999989" fill-opacity="1"/><g clip-path="url(#1179d2b160)"><path fill="#41a5ee" d="M 190.648438 190.648438 L 262.5 190.648438 L 262.5 262.5 L 190.648438 262.5 Z M 190.648438 190.648438 " fill-opacity="1" fill-rule="nonzero"/></g><g clip-path="url(#7ce53cbd89)"><path fill="#41a5ee" d="M 190.648438 112.5 L 262.5 112.5 L 262.5 184.351562 L 190.648438 184.351562 Z M 190.648438 112.5 " fill-opacity="1" fill-rule="nonzero"/></g><g clip-path="url(#383faa5d0b)"><path fill="#41a5ee" d="M 112.5 190.648438 L 184.351562 190.648438 L 184.351562 262.5 L 112.5 262.5 Z M 112.5 190.648438 " fill-opacity="1" fill-rule="nonzero"/></g><g clip-path="url(#d6f4c46c1a)"><path fill="#41a5ee" d="M 112.5 112.5 L 184.351562 112.5 L 184.351562 184.351562 L 112.5 184.351562 Z M 112.5 112.5 " fill-opacity="1" fill-rule="nonzero"/></g><path fill="#41a5ee" d="M 117.519531 122.773438 L 117.519531 122.769531 L 117.53125 122.761719 Z M 117.519531 122.773438 " fill-opacity="1" fill-rule="nonzero"/></svg>